<svg width="60" height="48" viewBox="0 0 60 48" fill="none" xmlns="http://www.w3.org/2000/svg">
<path d="M55.4111 0H3.86589C1.73385 0 0 1.67749 0 3.74023V34.9088C0 36.9716 1.73385 38.6491 3.86589 38.6491H4.5102V37.4023V36.1556V30.5452H2.57726V3.74023C2.57726 3.05265 3.15456 2.49349 3.86589 2.49349H55.4111C56.1224 2.49349 56.6997 3.05265 56.6997 3.74023V30.5452H43.8134V36.1556V37.4023V38.6491H55.4111C57.5431 38.6491 59.2769 36.9716 59.2769 34.9088V3.74023C59.2769 1.67812 57.5431 0 55.4111 0Z" fill="#E84C60"/>
<path d="M40.6325 13.0908H16.8328C15.742 13.0908 14.8193 13.9473 14.8193 14.9609V19.9479H17.3966V15.5843H39.9476V31.1686V36.779V38.0257V39.2725V43.0127H23.8397V45.5062C23.8397 46.4631 23.4596 47.3364 22.843 47.9997H40.6724C41.733 47.9997 42.5249 46.8477 42.5249 45.8179V39.2725V38.0257V36.779V31.1686V14.9609C42.5249 13.9299 41.6756 13.0908 40.6325 13.0908ZM28.886 46.2866C28.2791 46.2866 27.7862 45.7736 27.7862 45.1396C27.7862 44.5063 28.2797 43.9926 28.886 43.9926C29.4936 43.9926 29.9865 44.5063 29.9859 45.1396C29.9859 45.7736 29.4936 46.2866 28.886 46.2866Z" fill="#E84C60"/>
<path d="M21.2624 21.4993C20.8977 21.3098 20.4795 21.1951 20.024 21.1951H18.0408H17.3965H14.8192H14.1749H13.5306H8.37544C7.90509 21.1951 7.46825 21.3167 7.08746 21.518C6.32201 21.9226 5.79883 22.6756 5.79883 23.592V30.5457V36.156V37.4027V38.6495V45.5072C5.79883 46.8786 6.95795 48 8.37544 48H15.0138H16.8327H20.024C20.6696 48 21.2443 47.7594 21.6863 47.3766C22.2147 46.9191 22.551 46.2539 22.551 45.5072V42.3897V41.7663V38.6495V37.4027V36.156V30.5457V23.5914C22.551 22.6607 22.0343 21.8989 21.2624 21.4993ZM14.941 45.8294C14.8057 46.0158 14.6182 46.1548 14.3991 46.2278C14.2941 46.2627 14.1839 46.287 14.0667 46.287C13.9385 46.287 13.8167 46.2596 13.702 46.2178C13.2755 46.0601 12.9668 45.6399 12.9668 45.14C12.9668 44.7847 13.1253 44.4705 13.3695 44.2598C13.4198 44.2168 13.4733 44.1781 13.5306 44.1445C13.6898 44.051 13.8714 43.993 14.0667 43.993C14.104 43.993 14.1388 44.0011 14.1749 44.0048C14.3985 44.0279 14.6002 44.1189 14.7638 44.2598C14.7825 44.2754 14.8018 44.2903 14.8192 44.3072C15.0319 44.5166 15.1672 44.8115 15.1665 45.14C15.1665 45.3993 15.0815 45.6368 14.941 45.8294ZM19.9738 30.545V36.1554V37.4021V38.6488V41.7657V42.3891H17.3965H14.8192H14.1749H13.5306H8.37609V38.6488V37.4021V36.1554V30.545V23.688H13.5306H14.1749H14.8192H17.3965H18.0408H19.9738V30.545Z" fill="#E84C60"/>
<path d="M45.1021 44.2592C44.4578 42.389 43.8135 43.6358 43.8135 43.6358V44.8826V45.1943C43.8135 45.8869 43.8135 47.3762 43.8135 47.3762C45.7464 47.3762 49.6123 47.3762 49.6123 47.3762C49.6123 47.3762 49.6123 47.3762 49.6123 46.7528C49.6123 46.1294 45.7464 46.1294 45.1021 44.2592Z" fill="#E84C60"/>
</svg>
