<svg width="434" height="108" viewBox="0 0 434 108" fill="none" xmlns="http://www.w3.org/2000/svg">
<g filter="url(#filter0_d)">
<path fill-rule="evenodd" clip-rule="evenodd" d="M149.312 40.4084V27.8333H138.091V40.4084H149.312ZM239.06 65.7033V76.9242H227.839V65.6244V54.4034V44.6615C227.839 35.406 235.412 27.8333 244.667 27.8333C253.923 27.8333 261.495 35.406 261.495 44.6615V76.9176H250.274V65.7033V65.6244H239.06V65.7033ZM250.281 54.4034V44.6615C250.281 41.5982 247.737 39.0543 244.674 39.0543C241.61 39.0543 239.066 41.5982 239.066 44.6615V54.4034H250.281ZM194.189 65.7033V76.9242H182.968V44.6615C182.968 35.406 190.541 27.8333 199.796 27.8333C209.052 27.8333 216.624 35.406 216.624 44.6615V76.9176H205.403V65.7033V54.4823V44.6615C205.403 41.5982 202.86 39.0543 199.796 39.0543C196.733 39.0543 194.189 41.5982 194.189 44.6615V54.4823V65.7033ZM138.091 51.6294V60.0961C138.091 69.3516 145.663 76.9242 154.919 76.9242C164.174 76.9242 171.747 69.3516 171.747 60.0961V51.6294H160.526V52.3262V60.0895C160.526 63.1527 157.982 65.6967 154.919 65.6967C151.856 65.6967 149.312 63.1527 149.312 60.0895V52.3262V51.6294H138.091ZM171.747 40.4084V27.8333H160.526V40.4084H171.747Z" fill="white"/>
<path d="M305.722 58.2483V49.1358H289.299V38.5272H305.722V29.4147H278.167V77.0173H289.299V58.2483H305.722Z" fill="white"/>
<path d="M353.522 77.0173L335.586 29.4147H326.722L306.725 77.0173H319.025L322.049 68.6529H337.923L340.74 77.0173H353.522ZM330.226 46.1436H330.295L334.899 59.8804H325.279L330.226 46.1436Z" fill="white"/>
<path d="M385.69 42.2674L391.944 34.515C386.859 30.7068 381.911 28.6667 375.589 28.6667C367.549 28.6667 359.371 32.9509 359.371 41.9954C359.371 51.1759 366.037 54.1681 372.428 56.5482C376.757 58.1123 381.224 59.6084 381.224 63.3486C381.224 67.0208 377.857 68.5849 374.489 68.5849C369.336 68.5849 366.518 65.9327 362.807 62.5325L355.592 69.5369C360.883 74.8412 366.793 77.8334 374.352 77.8334C383.148 77.8334 393.043 73.3451 393.043 63.1446C393.043 52.74 384.728 49.6118 377.925 47.2997C374.833 46.2116 370.504 45.3956 370.504 41.9274C370.504 39.2073 373.184 37.8472 375.726 37.8472C379.437 37.8472 382.873 39.9553 385.69 42.2674Z" fill="white"/>
<path d="M429.833 38.5272V29.4147H396.436V38.5272H407.569V77.0173H418.701V38.5272H429.833Z" fill="white"/>
<path fill-rule="evenodd" clip-rule="evenodd" d="M54 102C81.6142 102 104 79.6142 104 52C104 24.3858 81.6142 2 54 2C26.3858 2 4 24.3858 4 52C4 79.6142 26.3858 102 54 102ZM27.2962 29.8793C27.5231 28.2293 28.933 27 30.5985 27H42.1088H44.1088H75.9057C80.0253 27 83.1589 30.6991 82.4817 34.7627L76.3706 71.4293C75.8348 74.6439 73.0535 77 69.7946 77H45.9421H33.7755H32.4318C30.4103 77 28.8542 75.2152 29.1295 73.2126C29.3564 71.5626 30.7663 70.3333 32.4318 70.3333L34.8866 70.3333H36.6452L45.9421 70.3333L55.2755 70.3333L69.7946 70.3333L75.9057 33.6667L55.2755 33.6667H44.1088L42.7563 33.6667L40.9977 33.6667H30.5985C28.577 33.6667 27.0208 31.8819 27.2962 29.8793ZM46.7906 38.6665H35.8818C34.2538 38.6665 32.864 39.8424 32.5944 41.4479C32.2531 43.4808 33.8203 45.3332 35.8818 45.3332H45.6996L46.7906 38.6665ZM41.8209 48.6665H28.0485C26.4205 48.6665 25.0307 49.8424 24.7611 51.4479C24.4198 53.4808 25.987 55.3332 28.0485 55.3332H40.73L41.8209 48.6665ZM32.0484 58.6665H36.8511L35.7602 65.3332H32.0484C29.987 65.3332 28.4197 63.4808 28.7611 61.4479C29.0306 59.8424 30.4205 58.6665 32.0484 58.6665ZM59.7755 49.5C62.5369 49.5 64.7755 47.2614 64.7755 44.5C64.7755 41.7386 62.5369 39.5 59.7755 39.5C57.0141 39.5 54.7755 41.7386 54.7755 44.5C54.7755 47.2614 57.0141 49.5 59.7755 49.5ZM41.4421 63.6667C41.4421 57.2233 46.6655 52 53.1088 52C59.5521 52 64.7755 57.2233 64.7755 63.6667V65.3333H58.1088V63.6667C58.1088 60.9052 55.8702 58.6667 53.1088 58.6667C50.3474 58.6667 48.1088 60.9052 48.1088 63.6667V65.3333H41.4421V63.6667Z" fill="white"/>
</g>
<defs>
<filter id="filter0_d" x="0" y="0" width="433.833" height="108" filterUnits="userSpaceOnUse" color-interpolation-filters="sRGB">
<feFlood flood-opacity="0" result="BackgroundImageFix"/>
<feColorMatrix in="SourceAlpha" type="matrix" values="0 0 0 0 0 0 0 0 0 0 0 0 0 0 0 0 0 0 127 0"/>
<feOffset dy="2"/>
<feGaussianBlur stdDeviation="2"/>
<feColorMatrix type="matrix" values="0 0 0 0 0 0 0 0 0 0 0 0 0 0 0 0 0 0 0.24 0"/>
<feBlend mode="normal" in2="BackgroundImageFix" result="effect1_dropShadow"/>
<feBlend mode="normal" in="SourceGraphic" in2="effect1_dropShadow" result="shape"/>
</filter>
</defs>
</svg>
