<svg width="533" height="108" viewBox="0 0 533 108" fill="none" xmlns="http://www.w3.org/2000/svg">
<g filter="url(#filter0_d)">
<path fill-rule="evenodd" clip-rule="evenodd" d="M150.145 40.4084V27.8333H138.924V40.4084H150.145ZM239.893 65.7033V76.9242H228.672V65.6244V54.4034V44.6615C228.672 35.406 236.245 27.8333 245.501 27.8333C254.756 27.8333 262.329 35.406 262.329 44.6615V76.9176H251.108V65.7033V65.6244H239.893V65.7033ZM251.114 54.4034V44.6615C251.114 41.5982 248.57 39.0543 245.507 39.0543C242.444 39.0543 239.9 41.5982 239.9 44.6615V54.4034H251.114ZM195.023 65.7033V76.9242H183.802V44.6615C183.802 35.406 191.374 27.8333 200.63 27.8333C209.885 27.8333 217.458 35.406 217.458 44.6615V76.9176H206.237V65.7033V54.4823V44.6615C206.237 41.5982 203.693 39.0543 200.63 39.0543C197.567 39.0543 195.023 41.5982 195.023 44.6615V54.4823V65.7033ZM138.924 51.6294V60.0961C138.924 69.3516 146.497 76.9242 155.752 76.9242C165.008 76.9242 172.581 69.3516 172.581 60.0961V51.6294H161.36V52.3262V60.0895C161.36 63.1527 158.816 65.6967 155.752 65.6967C152.689 65.6967 150.145 63.1527 150.145 60.0895V52.3262V51.6294H138.924ZM172.581 40.4084V27.8333H161.36V40.4084H172.581Z" fill="white"/>
<path d="M311.837 29.5H301.542L293.566 57.8643H293.43L286.271 29.5H274L287.43 77H297.861L306.315 47.6857H306.451L314.7 77H325.608L339.311 29.5H326.971L319.609 57.8643H319.472L311.837 29.5Z" fill="white"/>
<path d="M383.686 77L365.892 29.5H357.098L337.259 77H349.462L352.462 68.6536H368.21L371.005 77H383.686ZM360.574 46.1929H360.643L365.21 59.9H355.666L360.574 46.1929Z" fill="white"/>
<path d="M419.75 77V67.9071H400.662V29.5H389.617V77H419.75Z" fill="white"/>
<path d="M454.969 77V67.9071H435.88V29.5H424.836V77H454.969Z" fill="white"/>
<path d="M491.415 77V67.9071H471.099V57.1179H491.415V48.025H471.099V38.5929H491.415V29.5H460.055V77H491.415Z" fill="white"/>
<path d="M528.167 38.5929V29.5H495.034V38.5929H506.078V77H517.122V38.5929H528.167Z" fill="white"/>
<path fill-rule="evenodd" clip-rule="evenodd" d="M54 102C81.6142 102 104 79.6142 104 52C104 24.3858 81.6142 2 54 2C26.3858 2 4 24.3858 4 52C4 79.6142 26.3858 102 54 102ZM38.3002 33.0372V41.4771H69.3621V38.2401H52.5498C49.511 38.2401 47.0018 35.9726 46.6219 33.0372H38.3002ZM31.5476 33.0372V42.0388C28.1289 43.3567 25.8114 46.8314 26.1816 50.7181L27.9501 69.2877C28.3627 73.6198 32.0012 76.9282 36.3528 76.9282H71.6471C75.9988 76.9282 79.6372 73.6198 80.0498 69.2877L81.8184 50.7181C82.2006 46.7047 79.7171 43.1306 76.1146 41.9169V38.2401C76.1146 34.5107 73.0914 31.4875 69.3621 31.4875H53.2749C52.895 28.5522 50.3858 26.2847 47.347 26.2847H38.3002C34.5708 26.2847 31.5476 29.3079 31.5476 33.0372ZM73.4156 48.2297H34.5843C33.5888 48.2297 32.8094 49.0868 32.9038 50.0779L34.6723 68.6475C34.7548 69.5139 35.4825 70.1756 36.3528 70.1756H71.6471C72.5174 70.1756 73.2451 69.5139 73.3277 68.6475L75.0962 50.0779C75.1906 49.0868 74.4112 48.2297 73.4156 48.2297ZM59.7396 56.6416C59.7396 58.2952 58.7381 59.756 57.2074 60.6353V62.9179C57.2074 64.7826 55.6958 66.2942 53.8311 66.2942C51.9664 66.2942 50.4548 64.7826 50.4548 62.9179V60.6353C48.9241 59.756 47.9226 58.2951 47.9226 56.6416C47.9226 53.9543 50.568 51.7758 53.8311 51.7758C57.0943 51.7758 59.7396 53.9543 59.7396 56.6416Z" fill="white"/>
</g>
<defs>
<filter id="filter0_d" x="0" y="0" width="532.167" height="108" filterUnits="userSpaceOnUse" color-interpolation-filters="sRGB">
<feFlood flood-opacity="0" result="BackgroundImageFix"/>
<feColorMatrix in="SourceAlpha" type="matrix" values="0 0 0 0 0 0 0 0 0 0 0 0 0 0 0 0 0 0 127 0"/>
<feOffset dy="2"/>
<feGaussianBlur stdDeviation="2"/>
<feColorMatrix type="matrix" values="0 0 0 0 0 0 0 0 0 0 0 0 0 0 0 0 0 0 0.24 0"/>
<feBlend mode="normal" in2="BackgroundImageFix" result="effect1_dropShadow"/>
<feBlend mode="normal" in="SourceGraphic" in2="effect1_dropShadow" result="shape"/>
</filter>
</defs>
</svg>
