<svg width="1080" height="302" viewBox="0 0 1080 302" fill="none" xmlns="http://www.w3.org/2000/svg">
<path fill-rule="evenodd" clip-rule="evenodd" d="M98.2027 110.054V0H0V110.054H98.2027ZM883.652 331.427V429.63H785.449V330.737V232.534V147.275C785.449 66.2739 851.723 0 932.725 0C1013.73 0 1080 66.2739 1080 147.275V429.572H981.797V331.427V330.737H883.652V331.427ZM981.855 232.534V147.275C981.855 120.467 959.591 98.2027 932.782 98.2027C905.973 98.2027 883.71 120.467 883.71 147.275V232.534H981.855ZM490.956 331.427V429.63H392.753V147.275C392.753 66.2739 459.027 0 540.029 0C621.03 0 687.304 66.2739 687.304 147.275V429.572H589.101V331.427V233.224V147.275C589.101 120.467 566.838 98.2027 540.029 98.2027C513.22 98.2027 490.956 120.467 490.956 147.275V233.224V331.427ZM0 208.257V282.354C0 363.356 66.2739 429.63 147.275 429.63C228.277 429.63 294.551 363.356 294.551 282.354V208.257H196.348V214.355V282.297C196.348 309.106 174.084 331.369 147.275 331.369C120.467 331.369 98.2027 309.106 98.2027 282.297V214.355V208.257H0ZM294.551 110.054V0H196.348V110.054H294.551Z" fill="#F2F2F2"/>
</svg>
