<svg width="61" height="24" viewBox="0 0 61 24" fill="none" xmlns="http://www.w3.org/2000/svg">
<path fill-rule="evenodd" clip-rule="evenodd" d="M5.48581 6.14783V0H0V6.14783H5.48581ZM49.3626 18.5142V24H43.8768V18.4756V12.9898V8.2271C43.8768 3.7022 47.579 0 52.1039 0C56.6288 0 60.331 3.7022 60.331 8.2271V23.9968H54.8452V18.5142V18.4756H49.3626V18.5142ZM54.8484 12.9898V8.2271C54.8484 6.72951 53.6047 5.48581 52.1071 5.48581C50.6095 5.48581 49.3658 6.72951 49.3658 8.2271V12.9898H54.8484ZM27.4258 18.5142V24H21.94V8.2271C21.94 3.7022 25.6422 0 30.1671 0C34.692 0 38.3942 3.7022 38.3942 8.2271V23.9968H32.9084V18.5142V13.0284V8.2271C32.9084 6.72951 31.6647 5.48581 30.1671 5.48581C28.6695 5.48581 27.4258 6.72951 27.4258 8.2271V13.0284V18.5142ZM0 11.6336V15.7729C0 20.2978 3.7022 24 8.2271 24C12.752 24 16.4542 20.2978 16.4542 15.7729V11.6336H10.9684V11.9743V15.7697C10.9684 17.2673 9.72469 18.511 8.2271 18.511C6.72951 18.511 5.48581 17.2673 5.48581 15.7697V11.9743V11.6336H0ZM16.4542 6.14783V0H10.9684V6.14783H16.4542Z" fill="white"/>
</svg>
